<svg width="201" height="201" viewBox="0 0 201 201" fill="none" xmlns="http://www.w3.org/2000/svg">
<path d="M195.859 200.514H82.0764C79.315 200.514 77.0764 198.275 77.0764 195.514L77.0764 5.51367C77.0764 2.75225 79.315 0.513672 82.0764 0.513672H195.859C198.621 0.513672 200.859 2.75224 200.859 5.51367V195.514C200.859 198.275 198.621 200.514 195.859 200.514Z" fill="#313532"/>
<path d="M58.4076 195.75V5.26855C58.4076 2.50713 56.169 0.268555 53.4076 0.268555H5.36853C2.60711 0.268555 0.36853 2.50713 0.36853 5.26855V195.75C0.36853 198.511 2.60711 200.75 5.36853 200.75H53.4076C56.169 200.75 58.4076 198.511 58.4076 195.75Z" fill="#9895C1"/>
<path d="M100.615 5.26855H195.861L172.049 29.079L148.238 52.8894L124.427 76.6998L112.521 88.605L100.615 100.51L112.521 112.415L195.861 195.752H172.049H148.238H100.615H77.7566H58.7075H29.1814L58.7075 166.227V142.416V29.079V5.26855H77.7566H100.615Z" fill="#6A66A3"/>
<path d="M5.36987 5.26855H58.7075M5.36987 195.752L52.9926 148.131L76.804 124.321L100.615 100.51M58.7075 5.26855H77.7566M58.7075 5.26855V29.079M58.7075 195.752V29.079M58.7075 195.752H77.7566M58.7075 195.752H29.1814L112.521 112.415M100.615 100.51L195.861 195.752H172.049H148.238H100.615H77.7566M100.615 100.51L112.521 88.605M58.7075 29.079H5.36987M58.7075 29.079H77.7566M195.861 29.079L124.427 100.51M77.7566 29.079V195.752M77.7566 29.079V5.26855M77.7566 29.079H172.049M77.7566 5.26855H100.615H195.861L172.049 29.079M112.521 88.605L124.427 76.6998L148.238 52.8894L172.049 29.079M112.521 88.605L124.427 100.51M195.861 171.941L124.427 100.51" stroke="black" stroke-width="10" stroke-linecap="round" stroke-linejoin="round"/>
</svg>
